<svg width="36" height="36" viewBox="0 0 36 36" fill="none" xmlns="http://www.w3.org/2000/svg">
<path d="M13.5 13.1265C13.7506 13.1194 14.0001 13.1626 14.2337 13.2536C14.4672 13.3446 14.6802 13.4816 14.86 13.6563C15.0397 13.831 15.1826 14.0401 15.2802 14.271C15.3778 14.5019 15.428 14.7501 15.428 15.0007C15.428 15.2514 15.3778 15.4996 15.2802 15.7305C15.1826 15.9614 15.0397 16.1705 14.86 16.3452C14.6802 16.5199 14.4672 16.6569 14.2337 16.7479C14.0001 16.8389 13.7506 16.8821 13.5 16.875C13.0027 16.875 12.5258 16.6775 12.1742 16.3258C11.8225 15.9742 11.625 15.4973 11.625 15C11.625 14.5027 11.8225 14.0258 12.1742 13.6742C12.5258 13.3225 13.0027 13.125 13.5 13.125M22.5 13.125C22.7506 13.1179 23.0001 13.1611 23.2337 13.2521C23.4672 13.3431 23.6802 13.4801 23.86 13.6548C24.0397 13.8295 24.1826 14.0386 24.2802 14.2695C24.3778 14.5004 24.428 14.7486 24.428 14.9993C24.428 15.2499 24.3778 15.4981 24.2802 15.729C24.1826 15.9599 24.0397 16.169 23.86 16.3437C23.6802 16.5184 23.4672 16.6554 23.2337 16.7464C23.0001 16.8374 22.7506 16.8806 22.5 16.8735C22.0121 16.8597 21.5488 16.6562 21.2086 16.3062C20.8684 15.9562 20.678 15.4873 20.678 14.9993C20.678 14.5112 20.8684 14.0423 21.2086 13.6923C21.5488 13.3423 22.0121 13.1388 22.5 13.125ZM12.375 22.5C12.0766 22.5 11.7905 22.6185 11.5795 22.8295C11.3685 23.0405 11.25 23.3266 11.25 23.625C11.25 23.9234 11.3685 24.2095 11.5795 24.4205C11.7905 24.6315 12.0766 24.75 12.375 24.75H23.625C23.9234 24.75 24.2095 24.6315 24.4205 24.4205C24.6315 24.2095 24.75 23.9234 24.75 23.625C24.75 23.3266 24.6315 23.0405 24.4205 22.8295C24.2095 22.6185 23.9234 22.5 23.625 22.5H12.375ZM3 18C3 9.7155 9.7155 3 18 3C26.2845 3 33 9.7155 33 18C33 26.2845 26.2845 33 18 33C9.7155 33 3 26.2845 3 18ZM18 5.25C14.6185 5.25 11.3755 6.5933 8.98439 8.98439C6.5933 11.3755 5.25 14.6185 5.25 18C5.25 21.3815 6.5933 24.6245 8.98439 27.0156C11.3755 29.4067 14.6185 30.75 18 30.75C21.3815 30.75 24.6245 29.4067 27.0156 27.0156C29.4067 24.6245 30.75 21.3815 30.75 18C30.75 14.6185 29.4067 11.3755 27.0156 8.98439C24.6245 6.5933 21.3815 5.25 18 5.25Z" fill="#0F1A1C"/>
</svg>
