<svg width="24" height="24" viewBox="0 0 24 24" fill="none" xmlns="http://www.w3.org/2000/svg">
<g clip-path="url(#clip0_215_1841)">
<path d="M12 22.5C9.21523 22.5 6.54451 21.3938 4.57538 19.4246C2.60625 17.4555 1.5 14.7848 1.5 12C1.5 9.21523 2.60625 6.54451 4.57538 4.57538C6.54451 2.60625 9.21523 1.5 12 1.5C14.7848 1.5 17.4555 2.60625 19.4246 4.57538C21.3938 6.54451 22.5 9.21523 22.5 12C22.5 14.7848 21.3938 17.4555 19.4246 19.4246C17.4555 21.3938 14.7848 22.5 12 22.5ZM12 24C15.1826 24 18.2348 22.7357 20.4853 20.4853C22.7357 18.2348 24 15.1826 24 12C24 8.8174 22.7357 5.76516 20.4853 3.51472C18.2348 1.26428 15.1826 0 12 0C8.8174 0 5.76516 1.26428 3.51472 3.51472C1.26428 5.76516 0 8.8174 0 12C0 15.1826 1.26428 18.2348 3.51472 20.4853C5.76516 22.7357 8.8174 24 12 24Z" fill="black"/>
<path d="M16.9726 15.021C17.115 14.9875 17.264 14.9963 17.4015 15.0465C17.5389 15.0966 17.6587 15.1858 17.746 15.3031C17.8334 15.4205 17.8845 15.5608 17.8931 15.7068C17.9018 15.8529 17.8675 15.9982 17.7946 16.125C17.202 17.1513 16.3497 18.0036 15.3233 18.596C14.2969 19.1885 13.1327 19.5002 11.9476 19.5C10.7625 19.5002 9.5982 19.1885 8.57182 18.596C7.54544 18.0036 6.69312 17.1513 6.10057 16.125C6.02763 15.9982 5.99337 15.8529 6.00199 15.7068C6.01062 15.5608 6.06176 15.4205 6.14912 15.3031C6.23648 15.1858 6.35625 15.0966 6.49367 15.0465C6.6311 14.9963 6.78018 14.9875 6.92257 15.021H6.93007L6.95557 15.0285L7.05607 15.051L7.43407 15.1335C7.75657 15.2025 8.20657 15.2955 8.71957 15.387C9.75907 15.573 11.0026 15.75 11.9476 15.75C12.8926 15.75 14.1376 15.573 15.1756 15.387C15.7324 15.2866 16.287 15.1746 16.8391 15.051L16.9396 15.0285L16.9651 15.0225L16.9726 15.0195V15.021ZM7.13407 6.84901C8.27857 4.71301 13.1641 6.66901 8.56207 12C1.81807 9.60601 5.03707 5.55301 7.13407 6.84901ZM16.8661 6.84901C18.9631 5.55301 22.1821 9.60601 15.4381 12C10.8376 6.66901 15.7231 4.71301 16.8661 6.84901Z" fill="black"/>
</g>
<defs>
<clipPath id="clip0_215_1841">
<rect width="24" height="24" fill="white"/>
</clipPath>
</defs>
</svg>
