<svg width="16" height="16" viewBox="0 0 16 16" fill="none" xmlns="http://www.w3.org/2000/svg">
<path d="M7.99992 1.332C11.6826 1.332 14.6679 4.31733 14.6679 8C14.6679 11.682 11.6826 14.6667 7.99992 14.6667C4.31725 14.6667 1.33325 11.682 1.33325 8C1.33259 4.31733 4.31725 1.332 7.99992 1.332ZM7.99992 2.332C7.25046 2.32387 6.50683 2.46447 5.81206 2.74565C5.1173 3.02683 4.48521 3.44301 3.95236 3.97011C3.41951 4.49721 2.9965 5.12476 2.7078 5.81643C2.4191 6.5081 2.27045 7.25016 2.27045 7.99967C2.27045 8.74917 2.4191 9.49124 2.7078 10.1829C2.9965 10.8746 3.41951 11.5021 3.95236 12.0292C4.48521 12.5563 5.1173 12.9725 5.81206 13.2537C6.50683 13.5349 7.25046 13.6755 7.99992 13.6673C9.49243 13.6511 10.9183 13.0469 11.968 11.9858C13.0177 10.9246 13.6064 9.49227 13.6064 7.99967C13.6064 6.50707 13.0177 5.07471 11.968 4.01358C10.9183 2.95244 9.49243 2.34819 7.99992 2.332ZM7.99992 8.99867C9.08725 8.99867 10.1066 9.43467 10.8539 10.1953C10.9025 10.2416 10.9413 10.2972 10.968 10.3587C10.9946 10.4203 11.0086 10.4866 11.0091 10.5537C11.0097 10.6208 10.9967 10.6873 10.9709 10.7492C10.9452 10.8112 10.9072 10.8673 10.8594 10.9143C10.8115 10.9613 10.7546 10.9982 10.6922 11.0228C10.6297 11.0473 10.563 11.0591 10.4959 11.0573C10.4289 11.0555 10.3628 11.0403 10.3018 11.0124C10.2407 10.9846 10.1859 10.9448 10.1406 10.8953C9.86134 10.6112 9.52828 10.3854 9.16086 10.2314C8.79344 10.0773 8.399 9.99798 8.00059 9.998C7.6011 9.99788 7.20561 10.0775 6.83733 10.2323C6.46904 10.3871 6.13538 10.6139 5.85592 10.8993C5.80996 10.9463 5.7552 10.9837 5.69478 11.0094C5.63436 11.0352 5.56945 11.0488 5.50377 11.0495C5.43809 11.0502 5.37292 11.0379 5.31197 11.0134C5.25103 10.9889 5.19551 10.9526 5.14859 10.9067C5.10166 10.8607 5.06425 10.8059 5.03848 10.7455C5.01272 10.6851 4.99911 10.6202 4.99843 10.5545C4.99774 10.4888 5.01001 10.4237 5.03451 10.3627C5.05902 10.3018 5.09529 10.2463 5.14125 10.1993C5.5134 9.81842 5.95809 9.51592 6.44908 9.3097C6.94006 9.10349 7.46739 8.99773 7.99992 8.99867ZM5.99992 5.83333C6.11129 5.83018 6.22217 5.8494 6.32599 5.88984C6.4298 5.93029 6.52446 5.99114 6.60435 6.0688C6.68424 6.14647 6.74775 6.23936 6.79111 6.342C6.83448 6.44463 6.85682 6.55492 6.85682 6.66633C6.85682 6.77775 6.83448 6.88804 6.79111 6.99067C6.74775 7.09331 6.68424 7.1862 6.60435 7.26386C6.52446 7.34153 6.4298 7.40238 6.32599 7.44283C6.22217 7.48327 6.11129 7.50248 5.99992 7.49933C5.78307 7.4932 5.57717 7.40275 5.42596 7.2472C5.27475 7.09165 5.19015 6.88327 5.19015 6.66633C5.19015 6.4494 5.27475 6.24102 5.42596 6.08547C5.57717 5.92992 5.78307 5.83947 5.99992 5.83333ZM9.99992 5.83333C10.1113 5.83018 10.2222 5.8494 10.326 5.88984C10.4298 5.93029 10.5245 5.99114 10.6044 6.0688C10.6842 6.14647 10.7477 6.23936 10.7911 6.342C10.8345 6.44463 10.8568 6.55492 10.8568 6.66633C10.8568 6.77775 10.8345 6.88804 10.7911 6.99067C10.7477 7.09331 10.6842 7.1862 10.6044 7.26386C10.5245 7.34153 10.4298 7.40238 10.326 7.44283C10.2222 7.48327 10.1113 7.50248 9.99992 7.49933C9.78307 7.4932 9.57717 7.40275 9.42596 7.2472C9.27475 7.09165 9.19015 6.88327 9.19015 6.66633C9.19015 6.4494 9.27475 6.24102 9.42596 6.08547C9.57717 5.92992 9.78307 5.83947 9.99992 5.83333Z" fill="#0F1A1C"/>
</svg>
