<svg width="24" height="24" viewBox="0 0 24 24" fill="none" xmlns="http://www.w3.org/2000/svg">
<g clip-path="url(#clip0_215_1851)">
<path d="M12 22.5C9.21523 22.5 6.54451 21.3938 4.57538 19.4246C2.60625 17.4555 1.5 14.7848 1.5 12C1.5 9.21523 2.60625 6.54451 4.57538 4.57538C6.54451 2.60625 9.21523 1.5 12 1.5C14.7848 1.5 17.4555 2.60625 19.4246 4.57538C21.3938 6.54451 22.5 9.21523 22.5 12C22.5 14.7848 21.3938 17.4555 19.4246 19.4246C17.4555 21.3938 14.7848 22.5 12 22.5ZM12 24C15.1826 24 18.2348 22.7357 20.4853 20.4853C22.7357 18.2348 24 15.1826 24 12C24 8.8174 22.7357 5.76516 20.4853 3.51472C18.2348 1.26428 15.1826 0 12 0C8.8174 0 5.76516 1.26428 3.51472 3.51472C1.26428 5.76516 0 8.8174 0 12C0 15.1826 1.26428 18.2348 3.51472 20.4853C5.76516 22.7357 8.8174 24 12 24Z" fill="black"/>
<path d="M6.42747 14.3505C6.59973 14.251 6.80444 14.2241 6.99657 14.2756C7.1887 14.3271 7.35251 14.4527 7.45197 14.625C7.91287 15.4233 8.57583 16.0862 9.37419 16.547C10.1726 17.0078 11.0782 17.2502 12 17.25C12.9218 17.2502 13.8274 17.0078 14.6257 16.547C15.4241 16.0862 16.0871 15.4233 16.548 14.625C16.5969 14.539 16.6623 14.4636 16.7404 14.4029C16.8186 14.3423 16.908 14.2978 17.0035 14.2719C17.0989 14.246 17.1985 14.2392 17.2966 14.2519C17.3947 14.2647 17.4893 14.2967 17.575 14.3462C17.6606 14.3956 17.7357 14.4615 17.7957 14.5401C17.8558 14.6187 17.8998 14.7084 17.925 14.804C17.9503 14.8996 17.9564 14.9993 17.943 15.0973C17.9296 15.1953 17.897 15.2897 17.847 15.375C17.2544 16.4013 16.4021 17.2536 15.3757 17.846C14.3493 18.4385 13.1851 18.7502 12 18.75C10.8149 18.7502 9.6506 18.4385 8.62422 17.846C7.59783 17.2536 6.74552 16.4013 6.15297 15.375C6.05352 15.2027 6.02657 14.998 6.07805 14.8059C6.12952 14.6138 6.25521 14.45 6.42747 14.3505ZM10.5 9.75C10.5 10.992 9.82797 12 8.99997 12C8.17197 12 7.49997 10.992 7.49997 9.75C7.49997 8.508 8.17197 7.5 8.99997 7.5C9.82797 7.5 10.5 8.508 10.5 9.75ZM16.5 9.75C16.5 10.992 15.828 12 15 12C14.172 12 13.5 10.992 13.5 9.75C13.5 8.508 14.172 7.5 15 7.5C15.828 7.5 16.5 8.508 16.5 9.75Z" fill="black"/>
</g>
<defs>
<clipPath id="clip0_215_1851">
<rect width="24" height="24" fill="white"/>
</clipPath>
</defs>
</svg>
