<svg width="36" height="36" viewBox="0 0 36 36" fill="none" xmlns="http://www.w3.org/2000/svg">
<path d="M18 2.99699C26.286 2.99699 33.003 9.71399 33.003 18C33.003 26.2845 26.286 33 18 33C9.714 33 3 26.2845 3 18C2.9985 9.71399 9.714 2.99699 18 2.99699ZM18 5.24699C16.3137 5.2287 14.6405 5.54504 13.0773 6.1777C11.5141 6.81036 10.0919 7.74677 8.89299 8.93274C7.69409 10.1187 6.74231 11.5307 6.09273 13.087C5.44316 14.6432 5.10869 16.3129 5.10869 17.9992C5.10869 19.6856 5.44316 21.3553 6.09273 22.9115C6.74231 24.4678 7.69409 25.8798 8.89299 27.0657C10.0919 28.2517 11.5141 29.1881 13.0773 29.8208C14.6405 30.4534 16.3137 30.7698 18 30.7515C21.3582 30.7151 24.5664 29.3555 26.9282 26.9679C29.29 24.5804 30.6147 21.3576 30.6147 17.9992C30.6147 14.6409 29.29 11.4181 26.9282 9.03054C24.5664 6.64299 21.3582 5.28342 18 5.24699ZM18 20.247C20.4465 20.247 22.74 21.228 24.4215 22.9395C24.5308 23.0436 24.6181 23.1686 24.6781 23.3071C24.7381 23.4456 24.7696 23.5948 24.7708 23.7458C24.7719 23.8967 24.7426 24.0464 24.6847 24.1858C24.6269 24.3252 24.5415 24.4515 24.4337 24.5573C24.326 24.663 24.1981 24.7459 24.0576 24.8012C23.9171 24.8565 23.767 24.8829 23.6161 24.8789C23.4651 24.8749 23.3166 24.8406 23.1792 24.778C23.0419 24.7154 22.9185 24.6258 22.8165 24.5145C22.1882 23.8751 21.4388 23.3672 20.6121 23.0206C19.7854 22.6739 18.8979 22.4954 18.0015 22.4955C17.1027 22.4952 16.2128 22.6745 15.3842 23.0227C14.5555 23.371 13.8048 23.8812 13.176 24.5235C13.0726 24.6291 12.9494 24.7133 12.8134 24.7712C12.6775 24.8292 12.5315 24.8598 12.3837 24.8614C12.2359 24.8629 12.0892 24.8353 11.9521 24.7802C11.815 24.725 11.6901 24.6434 11.5845 24.54C11.4789 24.4366 11.3947 24.3134 11.3368 24.1774C11.2788 24.0415 11.2482 23.8954 11.2466 23.7477C11.2451 23.5999 11.2727 23.4532 11.3278 23.3161C11.383 23.179 11.4646 23.0541 11.568 22.9485C12.4053 22.0914 13.4059 21.4108 14.5106 20.9468C15.6153 20.4828 16.8018 20.2449 18 20.247ZM13.5 13.125C13.7506 13.1179 14.0001 13.1611 14.2337 13.2521C14.4672 13.3431 14.6802 13.4801 14.86 13.6548C15.0397 13.8295 15.1826 14.0386 15.2802 14.2695C15.3778 14.5004 15.428 14.7486 15.428 14.9992C15.428 15.2499 15.3778 15.4981 15.2802 15.729C15.1826 15.9599 15.0397 16.1689 14.86 16.3437C14.6802 16.5184 14.4672 16.6553 14.2337 16.7463C14.0001 16.8374 13.7506 16.8806 13.5 16.8735C13.0121 16.8597 12.5488 16.6562 12.2086 16.3062C11.8684 15.9562 11.678 15.4873 11.678 14.9992C11.678 14.5111 11.8684 14.0423 12.2086 13.6923C12.5488 13.3423 13.0121 13.1388 13.5 13.125ZM22.5 13.125C22.7506 13.1179 23.0001 13.1611 23.2337 13.2521C23.4672 13.3431 23.6802 13.4801 23.86 13.6548C24.0397 13.8295 24.1826 14.0386 24.2802 14.2695C24.3778 14.5004 24.428 14.7486 24.428 14.9992C24.428 15.2499 24.3778 15.4981 24.2802 15.729C24.1826 15.9599 24.0397 16.1689 23.86 16.3437C23.6802 16.5184 23.4672 16.6553 23.2337 16.7463C23.0001 16.8374 22.7506 16.8806 22.5 16.8735C22.0121 16.8597 21.5488 16.6562 21.2086 16.3062C20.8684 15.9562 20.678 15.4873 20.678 14.9992C20.678 14.5111 20.8684 14.0423 21.2086 13.6923C21.5488 13.3423 22.0121 13.1388 22.5 13.125Z" fill="#0F1A1C"/>
</svg>
