<svg width="24" height="24" viewBox="0 0 24 24" fill="none" xmlns="http://www.w3.org/2000/svg">
<g clip-path="url(#clip0_215_1847)">
<path d="M7.45188 14.625C7.403 14.539 7.33758 14.4636 7.25941 14.4029C7.18124 14.3423 7.09186 14.2978 6.9964 14.2719C6.90095 14.246 6.80131 14.2392 6.70322 14.2519C6.60514 14.2647 6.51054 14.2967 6.42489 14.3462C6.33923 14.3956 6.2642 14.4615 6.20412 14.5401C6.14404 14.6187 6.10009 14.7084 6.07481 14.804C6.04953 14.8996 6.04341 14.9993 6.05681 15.0973C6.07021 15.1953 6.10286 15.2897 6.15288 15.375C6.74543 16.4013 7.59775 17.2536 8.62413 17.846C9.65051 18.4385 10.8148 18.7502 11.9999 18.75C13.185 18.7502 14.3493 18.4385 15.3756 17.846C16.402 17.2536 17.2543 16.4013 17.8469 15.375C17.8969 15.2897 17.9296 15.1953 17.943 15.0973C17.9564 14.9993 17.9502 14.8996 17.925 14.804C17.8997 14.7084 17.8557 14.6187 17.7956 14.5401C17.7356 14.4615 17.6605 14.3956 17.5749 14.3462C17.4892 14.2967 17.3946 14.2647 17.2965 14.2519C17.1985 14.2392 17.0988 14.246 17.0034 14.2719C16.9079 14.2978 16.8185 14.3423 16.7404 14.4029C16.6622 14.4636 16.5968 14.539 16.5479 14.625C16.087 15.4233 15.424 16.0862 14.6257 16.547C13.8273 17.0078 12.9217 17.2502 11.9999 17.25C11.0781 17.2502 10.1725 17.0078 9.37411 16.547C8.57575 16.0862 7.91278 15.4233 7.45188 14.625ZM10.4999 7.674V7.5C10.4999 7.10218 10.3418 6.72064 10.0605 6.43934C9.77924 6.15804 9.39771 6 8.99988 6H4.91988C4.69187 6.00001 4.46687 6.05199 4.26196 6.152C4.05706 6.25202 3.87765 6.39743 3.73738 6.57718C3.59711 6.75693 3.49966 6.9663 3.45244 7.18937C3.40522 7.41243 3.40948 7.64333 3.46488 7.8645L3.93138 9.7275C4.09361 10.3765 4.46812 10.9527 4.99538 11.3644C5.52264 11.7762 6.1724 11.9999 6.84138 12H7.49988C8.25385 12.0002 8.98025 11.7165 9.53449 11.2053C10.0887 10.6941 10.4302 9.99302 10.4909 9.2415C10.9764 9.07555 11.4868 8.99388 11.9999 9C12.5894 9 13.1099 9.096 13.5089 9.2415C13.5696 9.99302 13.911 10.6941 14.4653 11.2053C15.0195 11.7165 15.7459 12.0002 16.4999 12H17.1569C17.8259 11.9999 18.4756 11.7762 19.0029 11.3644C19.5301 10.9527 19.9047 10.3765 20.0669 9.7275L20.5334 7.8645C20.5888 7.64345 20.593 7.41269 20.5459 7.18973C20.4988 6.96678 20.4015 6.75749 20.2613 6.57777C20.1212 6.39805 19.942 6.25261 19.7373 6.1525C19.5326 6.05239 19.3078 6.00023 19.0799 6H14.9999C14.6021 6 14.2205 6.15804 13.9392 6.43934C13.6579 6.72064 13.4999 7.10218 13.4999 7.5V7.674C13.0087 7.55607 12.505 7.49765 11.9999 7.5C11.4749 7.5 10.9649 7.56 10.4999 7.674Z" fill="black"/>
<path d="M24 12C24 15.1826 22.7357 18.2348 20.4853 20.4853C18.2348 22.7357 15.1826 24 12 24C8.8174 24 5.76516 22.7357 3.51472 20.4853C1.26428 18.2348 0 15.1826 0 12C0 8.8174 1.26428 5.76516 3.51472 3.51472C5.76516 1.26428 8.8174 0 12 0C15.1826 0 18.2348 1.26428 20.4853 3.51472C22.7357 5.76516 24 8.8174 24 12ZM22.5 12C22.5 9.21523 21.3938 6.54451 19.4246 4.57538C17.4555 2.60625 14.7848 1.5 12 1.5C9.21523 1.5 6.54451 2.60625 4.57538 4.57538C2.60625 6.54451 1.5 9.21523 1.5 12C1.5 14.7848 2.60625 17.4555 4.57538 19.4246C6.54451 21.3938 9.21523 22.5 12 22.5C14.7848 22.5 17.4555 21.3938 19.4246 19.4246C21.3938 17.4555 22.5 14.7848 22.5 12Z" fill="black"/>
</g>
<defs>
<clipPath id="clip0_215_1847">
<rect width="24" height="24" fill="white"/>
</clipPath>
</defs>
</svg>
