<svg width="36" height="36" viewBox="0 0 36 36" fill="none" xmlns="http://www.w3.org/2000/svg">
<path d="M18.0001 2.99699C26.2861 2.99699 33.0031 9.71399 33.0031 18C33.0031 26.2845 26.2861 33 18.0001 33C9.71407 33 2.99707 26.2845 2.99707 18C2.99707 9.71399 9.71407 2.99699 18.0001 2.99699ZM18.0001 5.24699C16.3138 5.2287 14.6406 5.54504 13.0774 6.1777C11.5142 6.81036 10.092 7.74677 8.89306 8.93274C7.69416 10.1187 6.74238 11.5307 6.0928 13.087C5.44323 14.6432 5.10876 16.3129 5.10876 17.9992C5.10876 19.6856 5.44323 21.3553 6.0928 22.9115C6.74238 24.4678 7.69416 25.8798 8.89306 27.0657C10.092 28.2517 11.5142 29.1881 13.0774 29.8208C14.6406 30.4534 16.3138 30.7698 18.0001 30.7515C21.3582 30.7151 24.5665 29.3555 26.9283 26.9679C29.2901 24.5804 30.6148 21.3576 30.6148 17.9992C30.6148 14.6409 29.2901 11.4181 26.9283 9.03054C24.5665 6.64299 21.3582 5.28342 18.0001 5.24699ZM12.6931 22.1745C13.325 22.9775 14.131 23.6265 15.0503 24.0727C15.9696 24.5188 16.9782 24.7504 18.0001 24.75C19.021 24.7514 20.0288 24.5206 20.9474 24.0752C21.866 23.6298 22.6714 22.9814 23.3026 22.179C23.3942 22.0631 23.5077 21.9663 23.6367 21.8943C23.7657 21.8222 23.9076 21.7763 24.0543 21.7591C24.2011 21.7419 24.3498 21.7538 24.4919 21.794C24.6341 21.8343 24.7669 21.9021 24.8828 21.9937C24.9987 22.0853 25.0955 22.1989 25.1675 22.3279C25.2396 22.4568 25.2855 22.5988 25.3027 22.7455C25.3199 22.8922 25.3081 23.0409 25.2678 23.1831C25.2275 23.3252 25.1597 23.4581 25.0681 23.574C24.2262 24.6429 23.1526 25.5068 21.9283 26.1002C20.7039 26.6937 19.3607 27.0014 18.0001 27C16.6374 27.0014 15.2923 26.6929 14.0665 26.0978C12.8407 25.5027 11.7663 24.6366 10.9246 23.565C10.8332 23.4489 10.7655 23.3159 10.7255 23.1736C10.6855 23.0314 10.6739 22.8826 10.6914 22.7359C10.7089 22.5891 10.7551 22.4473 10.8274 22.3184C10.8997 22.1895 10.9967 22.0761 11.1128 21.9847C11.2289 21.8933 11.3619 21.8257 11.5042 21.7857C11.6464 21.7457 11.7952 21.7341 11.9419 21.7516C12.0887 21.7691 12.2305 21.8153 12.3594 21.8876C12.4883 21.9599 12.6017 22.0569 12.6931 22.173M13.5001 13.125C13.7507 13.1179 14.0001 13.1611 14.2337 13.2521C14.4673 13.3431 14.6803 13.4801 14.86 13.6548C15.0398 13.8295 15.1827 14.0386 15.2803 14.2695C15.3778 14.5004 15.4281 14.7486 15.4281 14.9992C15.4281 15.2499 15.3778 15.4981 15.2803 15.729C15.1827 15.9599 15.0398 16.1689 14.86 16.3437C14.6803 16.5184 14.4673 16.6553 14.2337 16.7463C14.0001 16.8374 13.7507 16.8806 13.5001 16.8735C13.0122 16.8597 12.5489 16.6562 12.2087 16.3062C11.8684 15.9562 11.6781 15.4873 11.6781 14.9992C11.6781 14.5111 11.8684 14.0423 12.2087 13.6923C12.5489 13.3423 13.0122 13.1388 13.5001 13.125ZM22.5001 13.125C22.7507 13.1179 23.0001 13.1611 23.2337 13.2521C23.4673 13.3431 23.6803 13.4801 23.86 13.6548C24.0398 13.8295 24.1827 14.0386 24.2803 14.2695C24.3778 14.5004 24.4281 14.7486 24.4281 14.9992C24.4281 15.2499 24.3778 15.4981 24.2803 15.729C24.1827 15.9599 24.0398 16.1689 23.86 16.3437C23.6803 16.5184 23.4673 16.6553 23.2337 16.7463C23.0001 16.8374 22.7507 16.8806 22.5001 16.8735C22.0122 16.8597 21.5489 16.6562 21.2087 16.3062C20.8684 15.9562 20.6781 15.4873 20.6781 14.9992C20.6781 14.5111 20.8684 14.0423 21.2087 13.6923C21.5489 13.3423 22.0122 13.1388 22.5001 13.125Z" fill="#0F1A1C"/>
</svg>
