<svg width="16" height="16" viewBox="0 0 16 16" fill="none" xmlns="http://www.w3.org/2000/svg">
<path d="M8.00003 1.332C11.6827 1.332 14.668 4.31733 14.668 8C14.668 11.682 11.6827 14.6667 8.00003 14.6667C4.31736 14.6667 1.33203 11.682 1.33203 8C1.33203 4.31733 4.31736 1.332 8.00003 1.332ZM8.00003 2.332C7.25057 2.32387 6.50694 2.46447 5.81218 2.74565C5.11741 3.02683 4.48532 3.44301 3.95247 3.97011C3.41963 4.49721 2.99661 5.12476 2.70791 5.81643C2.41921 6.5081 2.27056 7.25016 2.27056 7.99967C2.27056 8.74917 2.41921 9.49124 2.70791 10.1829C2.99661 10.8746 3.41963 11.5021 3.95247 12.0292C4.48532 12.5563 5.11741 12.9725 5.81218 13.2537C6.50694 13.5349 7.25057 13.6755 8.00003 13.6673C9.49254 13.6511 10.9184 13.0469 11.9681 11.9858C13.0178 10.9246 13.6066 9.49227 13.6066 7.99967C13.6066 6.50707 13.0178 5.07471 11.9681 4.01358C10.9184 2.95244 9.49254 2.34819 8.00003 2.332ZM5.64136 9.85533C5.92223 10.2122 6.28046 10.5007 6.68904 10.699C7.09762 10.8972 7.54588 11.0002 8.00003 11C8.45376 11.0006 8.9017 10.8981 9.30997 10.7001C9.71824 10.5021 10.0762 10.214 10.3567 9.85733C10.3974 9.80581 10.4479 9.76281 10.5052 9.73079C10.5625 9.69877 10.6256 9.67836 10.6908 9.67071C10.756 9.66306 10.8221 9.66834 10.8853 9.68623C10.9485 9.70413 11.0075 9.73429 11.059 9.775C11.1106 9.81571 11.1536 9.86617 11.1856 9.9235C11.2176 9.98082 11.238 10.0439 11.2457 10.1091C11.2533 10.1743 11.248 10.2404 11.2301 10.3036C11.2122 10.3668 11.1821 10.4258 11.1414 10.4773C10.7672 10.9524 10.2901 11.3363 9.7459 11.6001C9.20173 11.8639 8.60476 12.0006 8.00003 12C7.39441 12.0006 6.79658 11.8635 6.25177 11.599C5.70697 11.3345 5.22945 10.9496 4.85536 10.4733C4.81474 10.4217 4.78468 10.3626 4.7669 10.2994C4.74912 10.2362 4.74397 10.1701 4.75174 10.1048C4.75951 10.0396 4.78005 9.97657 4.81218 9.91929C4.84432 9.86201 4.88742 9.81162 4.93903 9.771C4.99064 9.73038 5.04975 9.70032 5.11297 9.68254C5.1762 9.66476 5.24231 9.65961 5.30753 9.66738C5.37274 9.67515 5.43579 9.69568 5.49307 9.72782C5.55035 9.75996 5.60074 9.80306 5.64136 9.85467M6.00003 5.83333C6.11141 5.83018 6.22228 5.8494 6.3261 5.88984C6.42992 5.93029 6.52457 5.99114 6.60446 6.0688C6.68435 6.14647 6.74786 6.23936 6.79122 6.342C6.83459 6.44463 6.85693 6.55492 6.85693 6.66633C6.85693 6.77775 6.83459 6.88804 6.79122 6.99067C6.74786 7.09331 6.68435 7.1862 6.60446 7.26386C6.52457 7.34153 6.42992 7.40238 6.3261 7.44283C6.22228 7.48327 6.11141 7.50248 6.00003 7.49933C5.78319 7.4932 5.57728 7.40275 5.42607 7.2472C5.27486 7.09165 5.19027 6.88327 5.19027 6.66633C5.19027 6.4494 5.27486 6.24102 5.42607 6.08547C5.57728 5.92992 5.78319 5.83947 6.00003 5.83333ZM10 5.83333C10.1114 5.83018 10.2223 5.8494 10.3261 5.88984C10.4299 5.93029 10.5246 5.99114 10.6045 6.0688C10.6844 6.14647 10.7479 6.23936 10.7912 6.342C10.8346 6.44463 10.8569 6.55492 10.8569 6.66633C10.8569 6.77775 10.8346 6.88804 10.7912 6.99067C10.7479 7.09331 10.6844 7.1862 10.6045 7.26386C10.5246 7.34153 10.4299 7.40238 10.3261 7.44283C10.2223 7.48327 10.1114 7.50248 10 7.49933C9.78319 7.4932 9.57728 7.40275 9.42607 7.2472C9.27486 7.09165 9.19027 6.88327 9.19027 6.66633C9.19027 6.4494 9.27486 6.24102 9.42607 6.08547C9.57728 5.92992 9.78319 5.83947 10 5.83333Z" fill="#0F1A1C"/>
</svg>
