<svg width="16" height="16" viewBox="0 0 16 16" fill="none" xmlns="http://www.w3.org/2000/svg">
<path d="M5.99992 5.83399C6.11129 5.83084 6.22217 5.85006 6.32599 5.8905C6.4298 5.93095 6.52446 5.9918 6.60435 6.06946C6.68424 6.14713 6.74775 6.24002 6.79111 6.34266C6.83448 6.44529 6.85682 6.55558 6.85682 6.66699C6.85682 6.77841 6.83448 6.8887 6.79111 6.99133C6.74775 7.09397 6.68424 7.18686 6.60435 7.26452C6.52446 7.34219 6.4298 7.40304 6.32599 7.44349C6.22217 7.48393 6.11129 7.50315 5.99992 7.49999C5.7789 7.49999 5.56694 7.4122 5.41066 7.25592C5.25438 7.09964 5.16659 6.88767 5.16659 6.66666C5.16659 6.44565 5.25438 6.23369 5.41066 6.07741C5.56694 5.92113 5.7789 5.83333 5.99992 5.83333M9.99992 5.83333C10.1113 5.83018 10.2222 5.84939 10.326 5.88984C10.4298 5.93028 10.5245 5.99114 10.6043 6.0688C10.6842 6.14646 10.7477 6.23936 10.7911 6.34199C10.8345 6.44462 10.8568 6.55491 10.8568 6.66633C10.8568 6.77775 10.8345 6.88803 10.7911 6.99067C10.7477 7.0933 10.6842 7.1862 10.6043 7.26386C10.5245 7.34152 10.4298 7.40237 10.326 7.44282C10.2222 7.48326 10.1113 7.50248 9.99992 7.49933C9.78307 7.49319 9.57717 7.40274 9.42596 7.24719C9.27475 7.09164 9.19015 6.88326 9.19015 6.66633C9.19015 6.4494 9.27475 6.24101 9.42596 6.08546C9.57717 5.92992 9.78307 5.83946 9.99992 5.83333ZM5.49992 9.99999C5.36731 9.99999 5.24013 10.0527 5.14636 10.1464C5.0526 10.2402 4.99992 10.3674 4.99992 10.5C4.99992 10.6326 5.0526 10.7598 5.14636 10.8535C5.24013 10.9473 5.36731 11 5.49992 11H10.4999C10.6325 11 10.7597 10.9473 10.8535 10.8535C10.9472 10.7598 10.9999 10.6326 10.9999 10.5C10.9999 10.3674 10.9472 10.2402 10.8535 10.1464C10.7597 10.0527 10.6325 9.99999 10.4999 9.99999H5.49992ZM1.33325 7.99999C1.33325 4.31799 4.31792 1.33333 7.99992 1.33333C11.6819 1.33333 14.6666 4.31799 14.6666 7.99999C14.6666 11.682 11.6819 14.6667 7.99992 14.6667C4.31792 14.6667 1.33325 11.682 1.33325 7.99999ZM7.99992 2.33333C6.49702 2.33333 5.05569 2.93035 3.99298 3.99306C2.93027 5.05576 2.33325 6.4971 2.33325 7.99999C2.33325 9.50289 2.93027 10.9442 3.99298 12.0069C5.05569 13.0696 6.49702 13.6667 7.99992 13.6667C9.50281 13.6667 10.9442 13.0696 12.0069 12.0069C13.0696 10.9442 13.6666 9.50289 13.6666 7.99999C13.6666 6.4971 13.0696 5.05576 12.0069 3.99306C10.9442 2.93035 9.50281 2.33333 7.99992 2.33333Z" fill="#0F1A1C"/>
</svg>
