<svg width="24" height="24" viewBox="0 0 24 24" fill="none" xmlns="http://www.w3.org/2000/svg">
<path d="M19.5689 12.822L6.56895 21.822C6.41892 21.9258 6.24336 21.9866 6.06126 21.9978C5.87917 22.009 5.69748 21.9701 5.53588 21.8855C5.37427 21.8008 5.23891 21.6735 5.14445 21.5175C5.04998 21.3614 5.00001 21.1824 4.99995 21V3.00001C4.99983 2.81748 5.04966 2.63841 5.14406 2.48219C5.23845 2.32597 5.3738 2.19856 5.53543 2.11378C5.69707 2.02899 5.87883 1.99006 6.06101 2.00121C6.24319 2.01236 6.41885 2.07315 6.56895 2.17701L19.5689 11.177C19.7014 11.2694 19.8096 11.3925 19.8842 11.5357C19.9589 11.6789 19.9979 11.838 19.9979 11.9995C19.9979 12.161 19.9589 12.3201 19.8842 12.4633C19.8096 12.6065 19.7014 12.7296 19.5689 12.822Z" fill="#0F1A1C"/>
</svg>
