<svg width="24" height="24" viewBox="0 0 24 24" fill="none" xmlns="http://www.w3.org/2000/svg">
<path d="M11.9999 8.14286C11.4934 8.14286 10.9918 8.24263 10.5238 8.43647C10.0559 8.63031 9.63066 8.91442 9.27249 9.27259C8.91432 9.63076 8.63021 10.056 8.43637 10.5239C8.24253 10.9919 8.14276 11.4935 8.14276 12C8.14276 12.5065 8.24253 13.0081 8.43637 13.4761C8.63021 13.944 8.91432 14.3692 9.27249 14.7274C9.63066 15.0856 10.0559 15.3697 10.5238 15.5635C10.9918 15.7574 11.4934 15.8571 11.9999 15.8571C13.0229 15.8571 14.004 15.4508 14.7273 14.7274C15.4507 14.0041 15.857 13.023 15.857 12C15.857 10.977 15.4507 9.99594 14.7273 9.27259C14.004 8.54924 13.0229 8.14286 11.9999 8.14286ZM9.42848 12C9.42848 11.6623 9.49499 11.3279 9.62421 11.016C9.75344 10.704 9.94285 10.4205 10.1816 10.1817C10.4204 9.94295 10.7039 9.75354 11.0159 9.62431C11.3278 9.49508 11.6622 9.42857 11.9999 9.42857C12.3376 9.42857 12.672 9.49508 12.9839 9.62431C13.2959 9.75354 13.5794 9.94295 13.8182 10.1817C14.057 10.4205 14.2464 10.704 14.3756 11.016C14.5048 11.3279 14.5713 11.6623 14.5713 12C14.5713 12.682 14.3004 13.336 13.8182 13.8183C13.3359 14.3005 12.6819 14.5714 11.9999 14.5714C11.3179 14.5714 10.6639 14.3005 10.1816 13.8183C9.69939 13.336 9.42848 12.682 9.42848 12ZM18.6085 19.1957L17.1273 18.5451C16.9165 18.4536 16.6872 18.4125 16.4577 18.4253C16.2282 18.4381 16.0049 18.5044 15.8056 18.6189C15.4053 18.8503 15.1499 19.2591 15.0993 19.7194L14.921 21.3309C14.9034 21.4929 14.8361 21.6455 14.7281 21.7677C14.6202 21.8899 14.4771 21.9756 14.3185 22.0131C12.7934 22.3757 11.2047 22.3757 9.67962 22.0131C9.52114 21.9755 9.3782 21.8897 9.27046 21.7675C9.16271 21.6453 9.09545 21.4928 9.0779 21.3309L8.89962 19.722C8.87408 19.4956 8.7958 19.2783 8.67105 19.0876C8.54631 18.8969 8.37857 18.7381 8.18133 18.624C7.9842 18.5105 7.76322 18.4447 7.53608 18.4319C7.30895 18.4191 7.08198 18.4596 6.87333 18.5503L5.39219 19.2009C5.24246 19.2666 5.07599 19.2842 4.91582 19.2512C4.75564 19.2182 4.6097 19.1362 4.49819 19.0166C3.433 17.8735 2.63982 16.5046 2.1779 15.012C2.12892 14.8551 2.13018 14.6868 2.1815 14.5307C2.23283 14.3746 2.33167 14.2384 2.46419 14.1411L3.77305 13.1743C3.95731 13.0389 4.10712 12.8621 4.21038 12.6581C4.31365 12.4541 4.36745 12.2286 4.36745 12C4.36745 11.7714 4.31365 11.5459 4.21038 11.3419C4.10712 11.1379 3.95731 10.9611 3.77305 10.8257L2.46419 9.86143C2.3315 9.76416 2.23255 9.62781 2.18121 9.4715C2.12988 9.31518 2.12872 9.14672 2.1779 8.98972C2.63982 7.49802 3.43369 6.13036 4.4999 4.98943C4.61152 4.86995 4.75751 4.78811 4.91767 4.75525C5.07784 4.72239 5.24426 4.74012 5.3939 4.806L6.86819 5.45486C7.07796 5.54514 7.30595 5.58507 7.53392 5.57144C7.76189 5.55781 7.9835 5.49101 8.18103 5.37638C8.37855 5.26175 8.54649 5.10247 8.67142 4.9113C8.79635 4.72012 8.87479 4.50236 8.90048 4.27543L9.08048 2.66572C9.09823 2.50183 9.1669 2.34762 9.27682 2.22478C9.38675 2.10194 9.53241 2.01663 9.69333 1.98086C10.4476 1.81286 11.2202 1.724 12.011 1.71429C12.7842 1.72286 13.5539 1.81286 14.3082 1.98086C14.4692 2.01668 14.615 2.10211 14.7249 2.22512C14.8349 2.34813 14.9035 2.50253 14.921 2.66657L15.1002 4.27629C15.1386 4.63334 15.3076 4.96362 15.5746 5.20376C15.8416 5.44389 16.1879 5.57696 16.547 5.57743C16.7468 5.57743 16.9448 5.53543 17.1299 5.454L18.6042 4.80514C18.7538 4.73926 18.9203 4.72153 19.0804 4.75439C19.2406 4.78725 19.3866 4.86909 19.4982 4.98857C20.5641 6.12958 21.3577 7.49724 21.8193 8.98886C21.8684 9.14566 21.8673 9.31388 21.8161 9.47001C21.7649 9.62614 21.6663 9.76238 21.5339 9.85972L20.2268 10.8257C19.8539 11.1 19.6285 11.5363 19.6285 12C19.6285 12.4629 19.8539 12.8991 20.2276 13.1743L21.5356 14.1394C21.8065 14.34 21.9213 14.6897 21.8219 15.0111C21.3594 16.5022 20.5663 17.8696 19.5016 19.0114C19.3901 19.1311 19.2442 19.2131 19.084 19.2461C18.9238 19.2791 18.7582 19.2615 18.6085 19.1957ZM13.9388 19.026C14.1431 18.3854 14.5785 17.8437 15.1602 17.5063C15.5343 17.2907 15.9538 17.1659 16.3849 17.142C16.816 17.118 17.2468 17.1955 17.6425 17.3683L18.7945 17.874C19.5339 17.0168 20.1065 16.029 20.483 14.9614L19.4639 14.2097C19.1166 13.9553 18.834 13.6218 18.6391 13.2379C18.4442 12.8541 18.3424 12.4297 18.3419 11.9991C18.3419 11.1189 18.7679 10.302 19.4622 9.79114L19.4639 9.79029L20.4813 9.03857C20.1045 7.97124 19.5315 6.98372 18.7919 6.12686L17.6493 6.62914L17.6476 6.63C17.2996 6.78429 16.925 6.86314 16.5453 6.86314C15.87 6.86251 15.2186 6.61273 14.716 6.16165C14.2133 5.71058 13.8948 5.08993 13.8213 4.41857V4.41686L13.6816 3.16543C13.1302 3.06283 12.571 3.00749 12.0102 3C11.433 3.008 10.8688 3.06314 10.3173 3.16543L10.1776 4.41772C10.1295 4.84494 9.98189 5.25494 9.74658 5.61475C9.51127 5.97457 9.19484 6.27417 8.82272 6.48949C8.4506 6.70481 8.03316 6.82985 7.60394 6.85455C7.17473 6.87925 6.7457 6.80293 6.35133 6.63172L5.20619 6.12772C4.46659 6.98458 3.89361 7.9721 3.51676 9.03943L4.53676 9.79114C4.88317 10.046 5.16478 10.3788 5.35887 10.7626C5.55297 11.1463 5.6541 11.5704 5.6541 12.0004C5.6541 12.4305 5.55297 12.8545 5.35887 13.2383C5.16478 13.6221 4.88317 13.9548 4.53676 14.2097L3.51676 14.9623C3.89278 16.0314 4.46549 17.0207 5.20533 17.8791L6.35819 17.3734C6.75144 17.2017 7.17949 17.1247 7.60793 17.1485C8.03637 17.1723 8.45325 17.2963 8.82505 17.5106C9.19655 17.7252 9.51253 18.024 9.74758 18.3829C9.98264 18.7418 10.1302 19.1508 10.1785 19.5771V19.5814L10.3173 20.8363C11.429 21.0549 12.5716 21.0549 13.6833 20.8363L13.8222 19.5789C13.8428 19.3891 13.8822 19.2049 13.9405 19.026" fill="#0F1A1C"/>
</svg>
