<svg width="16" height="16" viewBox="0 0 16 16" fill="none" xmlns="http://www.w3.org/2000/svg">
<path d="M8.00002 5.42857C7.66233 5.42857 7.32795 5.49509 7.01597 5.62431C6.70399 5.75354 6.42052 5.94295 6.18174 6.18173C5.94296 6.42051 5.75355 6.70398 5.62433 7.01596C5.4951 7.32794 5.42859 7.66232 5.42859 8C5.42859 8.33769 5.4951 8.67207 5.62433 8.98405C5.75355 9.29603 5.94296 9.5795 6.18174 9.81828C6.42052 10.0571 6.70399 10.2465 7.01597 10.3757C7.32795 10.5049 7.66233 10.5714 8.00002 10.5714C8.682 10.5714 9.33606 10.3005 9.81829 9.81828C10.3005 9.33604 10.5714 8.68199 10.5714 8C10.5714 7.31802 10.3005 6.66397 9.81829 6.18173C9.33606 5.69949 8.682 5.42857 8.00002 5.42857ZM6.28573 8C6.28573 7.77488 6.33007 7.55196 6.41622 7.34397C6.50237 7.13599 6.62865 6.94701 6.78783 6.78782C6.94702 6.62863 7.136 6.50236 7.34399 6.41621C7.55198 6.33006 7.77489 6.28572 8.00002 6.28572C8.22514 6.28572 8.44806 6.33006 8.65605 6.41621C8.86403 6.50236 9.05301 6.62863 9.2122 6.78782C9.37139 6.94701 9.49766 7.13599 9.58381 7.34397C9.66996 7.55196 9.7143 7.77488 9.7143 8C9.7143 8.45466 9.53369 8.8907 9.2122 9.21219C8.89071 9.53368 8.45467 9.71429 8.00002 9.71429C7.54536 9.71429 7.10933 9.53368 6.78783 9.21219C6.46634 8.8907 6.28573 8.45466 6.28573 8ZM12.4057 12.7971L11.4183 12.3634C11.2778 12.3024 11.1249 12.275 10.9719 12.2835C10.8189 12.2921 10.67 12.3363 10.5372 12.4126C10.2703 12.5669 10.1 12.8394 10.0663 13.1463L9.94745 14.2206C9.93571 14.3286 9.89079 14.4304 9.81885 14.5118C9.74691 14.5933 9.65149 14.6504 9.54573 14.6754C8.52904 14.9171 7.46985 14.9171 6.45316 14.6754C6.34751 14.6503 6.25222 14.5931 6.18039 14.5117C6.10856 14.4302 6.06371 14.3285 6.05202 14.2206L5.93316 13.148C5.91614 12.997 5.86395 12.8522 5.78078 12.7251C5.69762 12.5979 5.5858 12.4921 5.4543 12.416C5.32288 12.3403 5.17556 12.2964 5.02414 12.2879C4.87272 12.2794 4.7214 12.3064 4.5823 12.3669L3.59487 12.8006C3.49506 12.8444 3.38407 12.8562 3.27729 12.8341C3.17051 12.8121 3.07321 12.7575 2.99887 12.6777C2.28874 11.9157 1.75996 11.0031 1.45202 10.008C1.41936 9.90341 1.4202 9.79123 1.45442 9.68714C1.48864 9.58304 1.55453 9.49224 1.64287 9.42743L2.51545 8.78286C2.63829 8.69261 2.73816 8.57472 2.807 8.43872C2.87584 8.30272 2.91172 8.15243 2.91172 8C2.91172 7.84757 2.87584 7.69728 2.807 7.56129C2.73816 7.42529 2.63829 7.3074 2.51545 7.21715L1.64287 6.57429C1.55441 6.50944 1.48845 6.41854 1.45422 6.31433C1.42 6.21012 1.41923 6.09782 1.45202 5.99315C1.75996 4.99868 2.28921 4.08691 3.00002 3.32629C3.07442 3.24663 3.17175 3.19208 3.27853 3.17017C3.38531 3.14826 3.49626 3.16008 3.59602 3.204L4.57887 3.63657C4.71872 3.69676 4.87072 3.72338 5.0227 3.7143C5.17467 3.70521 5.32242 3.66068 5.4541 3.58425C5.58578 3.50783 5.69774 3.40165 5.78103 3.2742C5.86432 3.14675 5.91661 3.00157 5.93373 2.85029L6.05373 1.77715C6.06557 1.66789 6.11134 1.56508 6.18463 1.48319C6.25792 1.40129 6.35502 1.34442 6.4623 1.32057C6.96516 1.20857 7.48021 1.14934 8.00745 1.14286C8.52287 1.14857 9.03602 1.20857 9.53888 1.32057C9.64624 1.34446 9.74341 1.40141 9.8167 1.48342C9.89 1.56543 9.93572 1.66836 9.94745 1.77772L10.0669 2.85086C10.0925 3.0889 10.2051 3.30909 10.3832 3.46917C10.5612 3.62926 10.792 3.71798 11.0314 3.71829C11.1646 3.71829 11.2966 3.69029 11.42 3.636L12.4029 3.20343C12.5026 3.15951 12.6136 3.14769 12.7204 3.1696C12.8271 3.1915 12.9245 3.24606 12.9989 3.32572C13.7095 4.08639 14.2385 4.99816 14.5463 5.99258C14.579 6.09711 14.5783 6.20925 14.5442 6.31334C14.51 6.41743 14.4443 6.50826 14.356 6.57315L13.4846 7.21715C13.236 7.4 13.0857 7.69086 13.0857 8C13.0857 8.30858 13.236 8.59943 13.4852 8.78286L14.3572 9.42629C14.5377 9.56 14.6143 9.79315 14.548 10.0074C14.2397 11.0015 13.7109 11.9131 13.0012 12.6743C12.9268 12.754 12.8295 12.8087 12.7227 12.8307C12.616 12.8527 12.5056 12.841 12.4057 12.7971ZM9.29259 12.684C9.42884 12.2569 9.71909 11.8958 10.1069 11.6709C10.3563 11.5271 10.6359 11.444 10.9234 11.428C11.2108 11.412 11.4979 11.4637 11.7617 11.5789L12.5297 11.916C13.0227 11.3445 13.4044 10.686 13.6554 9.97429L12.976 9.47315C12.7445 9.30353 12.5561 9.08122 12.4262 8.8253C12.2962 8.56938 12.2283 8.28646 12.228 7.99943C12.228 7.41257 12.512 6.868 12.9749 6.52743L12.976 6.52686L13.6543 6.02572C13.4031 5.31416 13.0211 4.65582 12.528 4.08457L11.7663 4.41943L11.7652 4.42C11.5332 4.52286 11.2834 4.57543 11.0303 4.57543C10.5801 4.57501 10.1458 4.40849 9.81072 4.10777C9.47563 3.80706 9.26327 3.39329 9.2143 2.94572V2.94457L9.12116 2.11029C8.75355 2.04189 8.38076 2.005 8.00687 2C7.62211 2.00534 7.24592 2.0421 6.8783 2.11029L6.78516 2.94515C6.7531 3.22997 6.65468 3.50329 6.4978 3.74317C6.34093 3.98305 6.12998 4.18278 5.8819 4.32633C5.63382 4.46988 5.35552 4.55323 5.06938 4.5697C4.78323 4.58617 4.49721 4.53529 4.2343 4.42115L3.47087 4.08515C2.97781 4.65639 2.59582 5.31473 2.34459 6.02629L3.02459 6.52743C3.25552 6.69735 3.44327 6.91919 3.57266 7.17504C3.70206 7.43089 3.76948 7.71358 3.76948 8.00029C3.76948 8.287 3.70206 8.56969 3.57266 8.82554C3.44327 9.08139 3.25552 9.30323 3.02459 9.47315L2.34459 9.97486C2.59527 10.6876 2.97707 11.3471 3.4703 11.9194L4.23887 11.5823C4.50104 11.4678 4.78641 11.4165 5.07204 11.4323C5.35766 11.4482 5.63558 11.5309 5.88345 11.6737C6.13111 11.8168 6.34177 12.016 6.49847 12.2552C6.65518 12.4945 6.75357 12.7672 6.78573 13.0514V13.0543L6.8783 13.8909C7.61945 14.0366 8.38116 14.0366 9.1223 13.8909L9.21487 13.0526C9.22859 12.9261 9.25487 12.8032 9.29373 12.684" fill="#0F1A1C"/>
</svg>
