<svg width="36" height="36" viewBox="0 0 36 36" fill="none" xmlns="http://www.w3.org/2000/svg">
<path d="M29.3535 19.233L9.85348 32.733C9.62845 32.8887 9.3651 32.9799 9.09195 32.9967C8.81881 33.0135 8.54628 32.9552 8.30388 32.8282C8.06147 32.7012 7.85843 32.5103 7.71673 32.2762C7.57503 32.0421 7.50008 31.7737 7.49998 31.5V4.5C7.4998 4.22622 7.57456 3.9576 7.71615 3.72327C7.85773 3.48894 8.06076 3.29784 8.30321 3.17066C8.54567 3.04348 8.81831 2.98509 9.09158 3.00181C9.36485 3.01853 9.62834 3.10972 9.85348 3.2655L29.3535 16.7655C29.5521 16.9041 29.7144 17.0887 29.8264 17.3035C29.9384 17.5183 29.9969 17.757 29.9969 17.9993C29.9969 18.2415 29.9384 18.4802 29.8264 18.695C29.7144 18.9098 29.5521 19.0944 29.3535 19.233Z" fill="#0F1A1C"/>
</svg>
