<svg width="36" height="36" viewBox="0 0 36 36" fill="none" xmlns="http://www.w3.org/2000/svg">
<path d="M5.625 4.5V31.5H7.875V22.5H30.375V4.5H5.625ZM7.875 6.75H11.25V10.125H14.625V6.75H18V10.125H21.375V6.75H24.75V10.125H28.125V13.5H24.75V16.875H28.125V20.25H24.75V16.875H21.375V20.25H18V16.875H14.625V20.25H11.25V16.875H7.875V13.5H11.25V10.125H7.875V6.75ZM11.25 13.5V16.875H14.625V13.5H11.25ZM14.625 13.5H18V10.125H14.625V13.5ZM18 13.5V16.875H21.375V13.5H18ZM21.375 13.5H24.75V10.125H21.375V13.5Z" fill="#0F1A1C"/>
</svg>
