<svg width="36" height="36" viewBox="0 0 36 36" fill="none" xmlns="http://www.w3.org/2000/svg">
<path d="M6.6464 19.233L26.1464 32.733C26.3714 32.8887 26.6348 32.9799 26.9079 32.9967C27.1811 33.0135 27.4536 32.9552 27.696 32.8282C27.9384 32.7012 28.1414 32.5103 28.2831 32.2762C28.4248 32.0421 28.4998 31.7737 28.4999 31.5V4.5C28.5001 4.22622 28.4253 3.9576 28.2837 3.72327C28.1421 3.48894 27.9391 3.29784 27.6967 3.17066C27.4542 3.04348 27.1816 2.98509 26.9083 3.00181C26.635 3.01853 26.3715 3.10972 26.1464 3.2655L6.6464 16.7655C6.44773 16.9041 6.28549 17.0887 6.17346 17.3035C6.06143 17.5183 6.00293 17.757 6.00293 17.9993C6.00293 18.2415 6.06143 18.4802 6.17346 18.695C6.28549 18.9098 6.44773 19.0944 6.6464 19.233Z" fill="#0F1A1C"/>
</svg>
