<svg width="14" height="14" viewBox="0 0 14 14" fill="none" xmlns="http://www.w3.org/2000/svg">
<g clip-path="url(#clip0_106_1713)">
<path d="M7.00008 12.3958C9.98012 12.3958 12.3959 9.98003 12.3959 7C12.3959 4.01996 9.98012 1.60416 7.00008 1.60416C4.02004 1.60416 1.60425 4.01996 1.60425 7C1.60425 9.98003 4.02004 12.3958 7.00008 12.3958Z" stroke="#0F1A1C" stroke-width="1.5" stroke-linecap="round" stroke-linejoin="round"/>
<path d="M8.64976 8.64967C8.32346 8.97606 7.9077 9.19836 7.45506 9.28845C7.00242 9.37854 6.53323 9.33237 6.10683 9.15578C5.68043 8.9792 5.31597 8.68013 5.05955 8.2964C4.80313 7.91267 4.66626 7.46152 4.66626 7C4.66626 6.53848 4.80313 6.08732 5.05955 5.70359C5.31597 5.31986 5.68043 5.0208 6.10683 4.84421C6.53323 4.66763 7.00242 4.62146 7.45506 4.71155C7.9077 4.80164 8.32346 5.02394 8.64976 5.35033" stroke="#0F1A1C" stroke-width="1.5" stroke-linecap="round" stroke-linejoin="round"/>
</g>
<defs>
<clipPath id="clip0_106_1713">
<rect width="14" height="14" fill="white"/>
</clipPath>
</defs>
</svg>
