<svg width="16" height="16" viewBox="0 0 16 16" fill="none" xmlns="http://www.w3.org/2000/svg">
<path d="M10.6819 6.232H14.0099L11.8893 4.11C11.2065 3.42725 10.3561 2.93626 9.4234 2.6864C8.49074 2.43654 7.50873 2.43662 6.5761 2.68662C5.64348 2.93661 4.7931 3.42772 4.11046 4.11058C3.42781 4.79343 2.93697 5.64396 2.68726 6.57667M1.98992 13.096V9.768M1.98992 9.768H5.31792M1.98992 9.768L4.10992 11.89C4.79267 12.5728 5.64312 13.0637 6.57578 13.3136C7.50845 13.5635 8.49045 13.5634 9.42308 13.3134C10.3557 13.0634 11.2061 12.5723 11.8887 11.8894C12.5714 11.2066 13.0622 10.356 13.3119 9.42333M14.0099 2.904V6.23067" stroke="#0F1A1C" stroke-width="2" stroke-linecap="round" stroke-linejoin="round"/>
</svg>
