<svg width="36" height="36" viewBox="0 0 36 36" fill="none" xmlns="http://www.w3.org/2000/svg">
<path fill-rule="evenodd" clip-rule="evenodd" d="M23.9849 11.7345C24.0915 11.632 24.2171 11.5515 24.3548 11.4976C24.4925 11.4437 24.6394 11.4175 24.7872 11.4204C24.935 11.4233 25.0808 11.4554 25.2162 11.5147C25.3516 11.574 25.474 11.6594 25.5764 11.766L30.8114 17.2215C31.0122 17.431 31.1243 17.7099 31.1243 18C31.1243 18.2901 31.0122 18.5691 30.8114 18.7785L25.5764 24.234C25.4741 24.3406 25.3518 24.4259 25.2164 24.4852C25.0811 24.5445 24.9354 24.5766 24.7877 24.5796C24.64 24.5826 24.4932 24.5564 24.3555 24.5027C24.2179 24.4489 24.0922 24.3686 23.9857 24.2663C23.8791 24.1639 23.7937 24.0416 23.7344 23.9063C23.6751 23.771 23.6431 23.6253 23.6401 23.4776C23.6371 23.3298 23.6632 23.183 23.717 23.0454C23.7708 22.9077 23.8511 22.7821 23.9534 22.6755L27.3599 19.125H16.9094C16.6111 19.125 16.3249 19.0065 16.1139 18.7955C15.903 18.5845 15.7844 18.2984 15.7844 18C15.7844 17.7016 15.903 17.4155 16.1139 17.2045C16.3249 16.9935 16.6111 16.875 16.9094 16.875H27.3614L23.9534 13.3245C23.7471 13.1092 23.6346 12.8208 23.6408 12.5227C23.647 12.2245 23.7713 11.941 23.9864 11.7345" fill="#0F1A1C"/>
<path fill-rule="evenodd" clip-rule="evenodd" d="M4.875 6C4.875 5.70163 4.99353 5.41548 5.2045 5.2045C5.41548 4.99353 5.70163 4.875 6 4.875H20.1825C20.4809 4.875 20.767 4.99353 20.978 5.2045C21.189 5.41548 21.3075 5.70163 21.3075 6V10.5C21.3075 10.7984 21.189 11.0845 20.978 11.2955C20.767 11.5065 20.4809 11.625 20.1825 11.625C19.8841 11.625 19.598 11.5065 19.387 11.2955C19.176 11.0845 19.0575 10.7984 19.0575 10.5V7.125H7.125V28.875H19.056V25.5C19.056 25.2016 19.1745 24.9155 19.3855 24.7045C19.5965 24.4935 19.8826 24.375 20.181 24.375C20.4794 24.375 20.7655 24.4935 20.9765 24.7045C21.1875 24.9155 21.306 25.2016 21.306 25.5V30C21.306 30.2984 21.1875 30.5845 20.9765 30.7955C20.7655 31.0065 20.4794 31.125 20.181 31.125H6C5.70163 31.125 5.41548 31.0065 5.2045 30.7955C4.99353 30.5845 4.875 30.2984 4.875 30V6Z" fill="#0F1A1C"/>
</svg>
