<svg width="36" height="36" viewBox="0 0 36 36" fill="none" xmlns="http://www.w3.org/2000/svg">
<path d="M18 12.2143C17.2402 12.2143 16.4878 12.3639 15.7859 12.6547C15.0839 12.9455 14.4461 13.3716 13.9089 13.9089C13.3716 14.4461 12.9454 15.0839 12.6547 15.7859C12.3639 16.4879 12.2143 17.2402 12.2143 18C12.2143 18.7598 12.3639 19.5121 12.6547 20.2141C12.9454 20.9161 13.3716 21.5539 13.9089 22.0911C14.4461 22.6284 15.0839 23.0545 15.7859 23.3453C16.4878 23.6361 17.2402 23.7857 18 23.7857C19.5344 23.7857 21.0061 23.1761 22.0911 22.0911C23.1761 21.0061 23.7857 19.5345 23.7857 18C23.7857 16.4655 23.1761 14.9939 22.0911 13.9089C21.0061 12.8238 19.5344 12.2143 18 12.2143ZM14.1428 18C14.1428 17.4935 14.2426 16.9919 14.4364 16.5239C14.6303 16.056 14.9144 15.6308 15.2726 15.2726C15.6307 14.9144 16.0559 14.6303 16.5239 14.4365C16.9919 14.2426 17.4935 14.1429 18 14.1429C18.5065 14.1429 19.0081 14.2426 19.476 14.4365C19.944 14.6303 20.3692 14.9144 20.7274 15.2726C21.0856 15.6308 21.3697 16.056 21.5635 16.5239C21.7574 16.9919 21.8571 17.4935 21.8571 18C21.8571 19.023 21.4507 20.0041 20.7274 20.7274C20.004 21.4508 19.023 21.8571 18 21.8571C16.977 21.8571 15.9959 21.4508 15.2726 20.7274C14.5492 20.0041 14.1428 19.023 14.1428 18ZM27.9128 28.7936L25.6911 27.8177C25.3749 27.6803 25.031 27.6188 24.6867 27.638C24.3425 27.6572 24.0075 27.7566 23.7086 27.9283C23.1081 28.2754 22.725 28.8887 22.6491 29.5791L22.3817 31.9963C22.3553 32.2394 22.2542 32.4683 22.0923 32.6516C21.9305 32.8349 21.7158 32.9635 21.4778 33.0197C19.1903 33.5635 16.8071 33.5635 14.5195 33.0197C14.2818 32.9632 14.0674 32.8345 13.9058 32.6513C13.7442 32.468 13.6433 32.2392 13.617 31.9963L13.3495 29.583C13.3112 29.2433 13.1938 28.9174 13.0067 28.6314C12.8196 28.3453 12.568 28.1072 12.2721 27.936C11.9764 27.7657 11.6449 27.667 11.3042 27.6478C10.9635 27.6286 10.6231 27.6894 10.3101 27.8254L8.08841 28.8013C7.86381 28.8999 7.6141 28.9263 7.37384 28.8768C7.13359 28.8273 6.91467 28.7043 6.74741 28.5249C5.14961 26.8103 3.95985 24.7569 3.26698 22.518C3.1935 22.2827 3.19539 22.0303 3.27238 21.796C3.34937 21.5618 3.49762 21.3575 3.69641 21.2117L5.65969 19.7614C5.93608 19.5584 6.16081 19.2931 6.3157 18.9871C6.47059 18.6811 6.5513 18.343 6.5513 18C6.5513 17.657 6.47059 17.3189 6.3157 17.0129C6.16081 16.7069 5.93608 16.4416 5.65969 16.2386L3.69641 14.7921C3.49737 14.6462 3.34895 14.4417 3.27194 14.2072C3.19494 13.9728 3.1932 13.7201 3.26698 13.4846C3.95985 11.247 5.15065 9.19553 6.74998 7.48414C6.91739 7.30492 7.13638 7.18216 7.37663 7.13287C7.61688 7.08357 7.86651 7.11018 8.09098 7.209L10.3024 8.18228C10.6171 8.31771 10.9591 8.3776 11.301 8.35716C11.643 8.33671 11.9754 8.23651 12.2717 8.06456C12.5679 7.89262 12.8199 7.6537 13.0073 7.36694C13.1946 7.08018 13.3123 6.75353 13.3508 6.41314L13.6208 3.99857C13.6475 3.75274 13.7505 3.52143 13.9154 3.33716C14.0802 3.1529 14.2987 3.02494 14.5401 2.97128C15.6715 2.71928 16.8304 2.586 18.0167 2.57143C19.1764 2.58428 20.331 2.71928 21.4624 2.97128C21.704 3.02502 21.9226 3.15316 22.0875 3.33768C22.2524 3.5222 22.3553 3.75379 22.3817 3.99986L22.6504 6.41443C22.7081 6.95001 22.9615 7.44543 23.362 7.80563C23.7626 8.16583 24.282 8.36543 24.8207 8.36614C25.1203 8.36614 25.4173 8.30314 25.695 8.181L27.9064 7.20771C28.1309 7.10889 28.3805 7.08229 28.6208 7.13158C28.861 7.18088 29.08 7.30363 29.2474 7.48286C30.8463 9.19437 32.0366 11.2459 32.7291 13.4833C32.8027 13.7185 32.801 13.9708 32.7243 14.205C32.6475 14.4392 32.4995 14.6436 32.301 14.7896L30.3403 16.2386C29.781 16.65 29.4428 17.3044 29.4428 18C29.4428 18.6943 29.781 19.3487 30.3416 19.7614L32.3035 21.2091C32.7098 21.51 32.8821 22.0346 32.733 22.5167C32.0392 24.7533 30.8495 26.8044 29.2526 28.5171C29.0853 28.6966 28.8664 28.8196 28.6261 28.8691C28.3859 28.9186 28.1374 28.8922 27.9128 28.7936ZM20.9083 28.539C21.2148 27.5781 21.8679 26.7655 22.7404 26.2594C23.3016 25.9361 23.9308 25.7489 24.5775 25.7129C25.2242 25.677 25.8703 25.7933 26.4638 26.0524L28.1918 26.811C29.3009 25.5252 30.1599 24.0435 30.7247 22.4421L29.196 21.3146C28.675 20.9329 28.2512 20.4327 27.9588 19.8569C27.6664 19.2811 27.5137 18.6445 27.513 17.9987C27.513 16.6783 28.152 15.453 29.1934 14.6867L29.196 14.6854L30.7221 13.5579C30.1568 11.9569 29.2974 10.4756 28.188 9.19028L26.4741 9.94371L26.4716 9.945C25.9496 10.1764 25.3877 10.2947 24.8181 10.2947C23.8051 10.2938 22.828 9.91909 22.0741 9.24248C21.3201 8.56587 20.8423 7.63488 20.7321 6.62786V6.62528L20.5225 4.74814C19.6954 4.59425 18.8567 4.51123 18.0154 4.5C17.1497 4.512 16.3033 4.59471 15.4761 4.74814L15.2665 6.62657C15.1944 7.26741 14.973 7.8824 14.62 8.42212C14.267 8.96185 13.7924 9.41125 13.2342 9.73423C12.676 10.0572 12.0499 10.2448 11.406 10.2818C10.7622 10.3189 10.1187 10.2044 9.52712 9.94757L7.80941 9.19157C6.70001 10.4769 5.84054 11.9581 5.27526 13.5591L6.80526 14.6867C7.32487 15.069 7.74729 15.5682 8.03843 16.1438C8.32957 16.7195 8.48127 17.3555 8.48127 18.0006C8.48127 18.6457 8.32957 19.2818 8.03843 19.8575C7.74729 20.4331 7.32487 20.9323 6.80526 21.3146L5.27526 22.4434C5.83929 24.0471 6.69835 25.531 7.80812 26.8187L9.53741 26.0601C10.1273 25.8026 10.7694 25.687 11.412 25.7228C12.0547 25.7585 12.68 25.9445 13.2377 26.2659C13.7949 26.5878 14.2689 27.0359 14.6215 27.5743C14.9741 28.1127 15.1955 28.7262 15.2678 29.3657V29.3721L15.4761 31.2544C17.1437 31.5823 18.8575 31.5823 20.5251 31.2544L20.7334 29.3683C20.7643 29.0837 20.8234 28.8073 20.9108 28.539" fill="#0F1A1C"/>
</svg>
