<svg width="36" height="36" viewBox="0 0 36 36" fill="none" xmlns="http://www.w3.org/2000/svg">
<path d="M32.4731 29.8125C30.3314 26.1098 27.0309 23.4548 23.1792 22.1963C25.0844 21.0621 26.5647 19.3338 27.3926 17.2769C28.2205 15.22 28.3504 12.9482 27.7622 10.8103C27.1741 8.6725 25.9004 6.78684 24.1368 5.44293C22.3732 4.09902 20.2172 3.37118 18 3.37118C15.7827 3.37118 13.6267 4.09902 11.8631 5.44293C10.0995 6.78684 8.82585 8.6725 8.23768 10.8103C7.64951 12.9482 7.77937 15.22 8.60731 17.2769C9.43525 19.3338 10.9155 21.0621 12.8207 22.1963C8.96902 23.4534 5.66855 26.1084 3.52683 29.8125C3.44829 29.9406 3.39619 30.0831 3.37362 30.2316C3.35104 30.3801 3.35844 30.5317 3.39538 30.6773C3.43232 30.8229 3.49805 30.9596 3.58869 31.0794C3.67934 31.1992 3.79306 31.2997 3.92314 31.3748C4.05323 31.45 4.19705 31.4983 4.34612 31.5169C4.49519 31.5356 4.64648 31.5242 4.79108 31.4835C4.93567 31.4427 5.07064 31.3734 5.18801 31.2796C5.30539 31.1859 5.4028 31.0695 5.47448 30.9375C8.12386 26.3588 12.8067 23.625 18 23.625C23.1932 23.625 27.876 26.3588 30.5254 30.9375C30.5971 31.0695 30.6945 31.1859 30.8119 31.2796C30.9293 31.3734 31.0642 31.4427 31.2088 31.4835C31.3534 31.5242 31.5047 31.5356 31.6538 31.5169C31.8029 31.4983 31.9467 31.45 32.0768 31.3748C32.2068 31.2997 32.3206 31.1992 32.4112 31.0794C32.5019 30.9596 32.5676 30.8229 32.6045 30.6773C32.6415 30.5317 32.6489 30.3801 32.6263 30.2316C32.6037 30.0831 32.5516 29.9406 32.4731 29.8125ZM10.125 13.5C10.125 11.9425 10.5868 10.4199 11.4521 9.12489C12.3174 7.82985 13.5474 6.82049 14.9863 6.22445C16.4253 5.62841 18.0087 5.47246 19.5363 5.77632C21.0639 6.08018 22.4671 6.8302 23.5684 7.93154C24.6698 9.03288 25.4198 10.4361 25.7236 11.9637C26.0275 13.4913 25.8715 15.0747 25.2755 16.5136C24.6795 17.9526 23.6701 19.1825 22.3751 20.0478C21.08 20.9131 19.5575 21.375 18 21.375C15.9121 21.3728 13.9103 20.5424 12.434 19.066C10.9576 17.5896 10.1272 15.5879 10.125 13.5Z" fill="#0F1A1C"/>
</svg>
