<svg width="36" height="36" viewBox="0 0 36 36" fill="none" xmlns="http://www.w3.org/2000/svg">
<path d="M24.0346 14.022H31.5226L26.7511 9.2475C25.2149 7.71131 23.3014 6.60659 21.2029 6.04441C19.1044 5.48223 16.8949 5.48239 14.7965 6.04488C12.6981 6.60738 10.7847 7.71238 9.24877 9.2488C7.71283 10.7852 6.60842 12.6989 6.04657 14.7975M4.47757 29.466V21.978M4.47757 21.978H11.9656M4.47757 21.978L9.24757 26.7525C10.7837 28.2887 12.6973 29.3934 14.7958 29.9556C16.8942 30.5178 19.1038 30.5176 21.2022 29.9551C23.3006 29.3926 25.2139 28.2876 26.7499 26.7512C28.2858 25.2148 29.3902 23.3011 29.9521 21.2025M31.5226 6.534V14.019" stroke="#0F1A1C" stroke-width="2" stroke-linecap="round" stroke-linejoin="round"/>
</svg>
